<?xml version="1.0" encoding="UTF-8" standalone="no"?>
<svg
   xmlns:dc="http://purl.org/dc/elements/1.1/"
   xmlns:cc="http://creativecommons.org/ns#"
   xmlns:rdf="http://www.w3.org/1999/02/22-rdf-syntax-ns#"
   xmlns:svg="http://www.w3.org/2000/svg"
   xmlns="http://www.w3.org/2000/svg"
   xmlns:sodipodi="http://sodipodi.sourceforge.net/DTD/sodipodi-0.dtd"
   xmlns:inkscape="http://www.inkscape.org/namespaces/inkscape"
   aria-hidden="true"
   focusable="false"
   data-prefix="fas"
   data-icon="folder-open"
   class="svg-inline--fa fa-folder-open fa-w-18"
   role="img"
   viewBox="0 0 384 575.99988"
   version="1.1"
   id="svg997"
   sodipodi:docname="project-pending.svg"
   inkscape:version="0.92.3 (2405546, 2018-03-11)"
   width="384"
   height="575.99988">
  <metadata
     id="metadata1003">
    <rdf:RDF>
      <cc:Work
         rdf:about="">
        <dc:format>image/svg+xml</dc:format>
        <dc:type
           rdf:resource="http://purl.org/dc/dcmitype/StillImage" />
        <dc:title></dc:title>
      </cc:Work>
    </rdf:RDF>
  </metadata>
  <defs
     id="defs1001" />
  <sodipodi:namedview
     pagecolor="#ffffff"
     bordercolor="#666666"
     borderopacity="1"
     objecttolerance="10"
     gridtolerance="10"
     guidetolerance="10"
     inkscape:pageopacity="0"
     inkscape:pageshadow="2"
     inkscape:window-width="1920"
     inkscape:window-height="1007"
     id="namedview999"
     showgrid="false"
     inkscape:zoom="0.4609375"
     inkscape:cx="192.00005"
     inkscape:cy="548.33902"
     inkscape:window-x="0"
     inkscape:window-y="0"
     inkscape:window-maximized="1"
     inkscape:current-layer="svg997"
     fit-margin-top="0"
     fit-margin-left="0"
     fit-margin-right="0"
     fit-margin-bottom="0" />
  <path
     d="M 228.093,572.694 352.248,500.27 A 63.997,63.997 0 0 0 384,444.989 V 45.025 C 384,26.502 363.907,14.961 347.907,24.294 L 223.752,96.718 A 64,64 0 0 0 192,152 v 399.964 c 0,18.523 20.093,30.064 36.093,20.73 z M 160,152 V 480 H 112 C 85.490002,480 64.000002,458.51 64.000002,432 V 272 L 0,208 V 48 C 0,21.49 21.490002,0 48.000002,0 H 326.046 L 207.628,69.077 C 178.25,86.214 160,117.989 160,152 Z"
     id="path995"
     inkscape:connector-curvature="0"
     style="fill:#434664;fill-opacity:0.2" />
</svg>
