<?xml version="1.0" encoding="UTF-8"?>
<svg class="svg-inline--fa fa-bars fa-w-14" aria-hidden="true" data-icon="bars" data-prefix="fas" focusable="false" role="img" version="1.1" viewBox="0 0 448 512" xmlns="http://www.w3.org/2000/svg" xmlns:cc="http://creativecommons.org/ns#" xmlns:dc="http://purl.org/dc/elements/1.1/" xmlns:rdf="http://www.w3.org/1999/02/22-rdf-syntax-ns#">
 <metadata>
  <rdf:RDF>
   <cc:Work rdf:about="">
    <dc:format>image/svg+xml</dc:format>
    <dc:type rdf:resource="http://purl.org/dc/dcmitype/StillImage"/>
    <dc:title/>
   </cc:Work>
  </rdf:RDF>
 </metadata>
 <path d="M16 132h416c8.837 0 16-7.163 16-16V76c0-8.837-7.163-16-16-16H16C7.163 60 0 67.163 0 76v40c0 8.837 7.163 16 16 16zm0 160h416c8.837 0 16-7.163 16-16v-40c0-8.837-7.163-16-16-16H16c-8.837 0-16 7.163-16 16v40c0 8.837 7.163 16 16 16zm0 160h416c8.837 0 16-7.163 16-16v-40c0-8.837-7.163-16-16-16H16c-8.837 0-16 7.163-16 16v40c0 8.837 7.163 16 16 16z" fill="#434664" fill-opacity=".2"/>
 <text transform="scale(.50003 1.9999)" x="-734.9422" y="256.52203" fill="#000000" font-family="'Khmer OS'" font-size="686.91px" letter-spacing="0px" stroke-width="17.173" word-spacing="0px" style="line-height:1.25" xml:space="preserve"><tspan x="-734.9422" y="864.27448" font-family="'Khmer OS'" stroke-width="17.173"/></text>
</svg>
