<?xml version="1.0" encoding="UTF-8"?>
<!-- Generator: Adobe Illustrator 13.0.0, SVG Export Plug-In . SVG Version: 6.00 Build 14576)  -->
<svg id="Old_English_typeface" fill="#dfeade" width="26.656" height="26.394" version="1.1" viewBox="0 0 26.656 26.394" xml:space="preserve" xmlns="http://www.w3.org/2000/svg" xmlns:cc="http://creativecommons.org/ns#" xmlns:dc="http://purl.org/dc/elements/1.1/" xmlns:rdf="http://www.w3.org/1999/02/22-rdf-syntax-ns#"><metadata><rdf:RDF><cc:Work rdf:about=""><dc:format>image/svg+xml</dc:format><dc:type rdf:resource="http://purl.org/dc/dcmitype/StillImage"/><dc:title/></cc:Work></rdf:RDF></metadata>
<g id="All" transform="translate(-149.09 -132.76)">
	<g id="Text">
		
		
		
		
		
		
		
		
		
		
		
		
		
		
		
		
		
		
		
		
		
		
		
		
		
		
		
		
		
		
		
		
		
		
		
		
		
		
		
		
		
		
		
		
		
		
		
		
		
		
		
		
		
		
		
		
		
		
		
		
		
		
		
		
		
		
		
		
		
		
		
	<path d="m175.08 132.76 0.67 0.459c-0.247 1.142-0.585 2.042-1.014 2.701s-1.058 1.18-1.887 1.562c-0.829 0.383-1.783 0.574-2.865 0.574-0.576 0-1.275-0.035-2.098-0.106v17.831c1.78-0.54 3.197-1.235 4.25-2.086 1.054-0.851 2.031-2.074 2.934-3.669l0.679 0.327c-0.518 1.576-1.117 2.839-1.798 3.792-1.093 1.54-2.503 2.76-4.231 3.66s-3.726 1.349-5.994 1.349c-2.209 0-4.278-0.424-6.205-1.271-1.117-0.495-2.139-1.188-3.068-2.083-0.928-0.895-1.689-1.978-2.283-3.249s-0.89-2.713-0.89-4.326c0-1.625 0.323-3.178 0.968-4.662 0.646-1.483 1.597-2.901 2.853-4.255 0.799-0.847 1.926-1.783 3.381-2.807l-2.212-0.12c-0.82-0.047-1.727 0.126-2.722 0.521s-1.771 0.921-2.327 1.58-1.039 1.642-1.448 2.948l-0.679-0.397c0.399-1.669 0.916-2.968 1.55-3.897 0.846-1.234 1.961-2.189 3.347-2.865s2.965-1.014 4.739-1.014c1.233 0 3.412 0.259 6.535 0.777 3.125 0.518 5.274 0.777 6.449 0.777 0.786 0 1.388-0.121 1.805-0.362s0.939-0.806 1.561-1.689zm-14.614 3.92-0.934-0.088c-1.575 1.353-2.733 2.707-3.473 4.06-0.999 1.824-1.499 3.702-1.499 5.632 0 3.295 1.352 5.984 4.055 8.067 0.858-0.718 1.381-1.3 1.569-1.748 0.188-0.447 0.282-1.359 0.282-2.736zm6.611 1.111c-1.116-0.153-2.104-0.318-2.961-0.494v10.559c0 1.236-0.05 2.022-0.15 2.358-0.1 0.335-0.332 0.715-0.696 1.138-0.658 0.73-1.973 1.884-3.946 3.461 0.987 0.481 1.786 0.804 2.396 0.969 1.058 0.281 2.074 0.422 3.049 0.422 0.517 0 1.286-0.064 2.308-0.194z"/></g>
</g>
</svg>
