<?xml version="1.0" encoding="UTF-8"?>
<!-- Created with Inkscape (http://www.inkscape.org/) -->
<svg width="51.182mm" height="81.918mm" version="1.1" viewBox="0 0 51.182 81.918" xmlns="http://www.w3.org/2000/svg" xmlns:cc="http://creativecommons.org/ns#" xmlns:dc="http://purl.org/dc/elements/1.1/" xmlns:rdf="http://www.w3.org/1999/02/22-rdf-syntax-ns#">
 <metadata>
  <rdf:RDF>
   <cc:Work rdf:about="">
    <dc:format>image/svg+xml</dc:format>
    <dc:type rdf:resource="http://purl.org/dc/dcmitype/StillImage"/>
    <dc:title/>
   </cc:Work>
  </rdf:RDF>
 </metadata>
 <g transform="translate(-59.111 -73.52)">
  <g transform="translate(4.1547 -4.6743)" fill="#dfeade" fill-rule="evenodd">
   <path transform="matrix(.26458 0 0 .26458 54.555 79.311)" d="m14.654-4.2188c-7.2794 0-13.139 5.8593-13.139 13.139v283.33c0 7.2794 5.8593 13.139 13.139 13.139h167.17c7.2794 0 13.139-5.8593 13.139-13.139v-283.33c0-7.2794-5.8593-13.139-13.139-13.139zm10.254 21.291h66.652c2.9756 0 4.6619 1.6413 5.0586 4.9238v11.324h-29.359v109.61h-18.15v-109.61h-29.359v-11.324c0-1.4443 0.49642-2.6258 1.4883-3.5449 1.058-0.91912 2.2813-1.3789 3.6699-1.3789zm94.42 0h43.361c7.9404 0 14.334 6.3936 14.334 14.334v238.36c0 7.9404-6.3936 14.332-14.334 14.332h-43.361c-7.9404 0-14.332-6.3916-14.332-14.332v-238.36c0-7.9404 6.3917-14.334 14.332-14.334zm-99.877 141.18h48.998c6.4801 0 12.002 2.1011 16.564 6.3027 4.6948 4.2673 7.043 9.651 7.043 16.15v83.705c0 5.843-1.7867 10.569-5.3574 14.18-3.5707 3.6765-8.3301 5.5156-14.281 5.5156h-52.967zm18.053 15.264v95.129h30.748c3.4384 0 5.3217-1.8052 5.6523-5.416 0.13225-0.98478 0.19922-2.0023 0.19922-3.0527v-76.221c0-4.3986-1.7198-7.5832-5.1582-9.5527-1.058-0.59086-2.2813-0.88672-3.6699-0.88672z"/>
   <rect x="86.497" y="88.795" width="10.734" height="60.222" ry="3.2324"/>
  </g>
 </g>
</svg>
